<?xml version="1.0" encoding="utf-8"?>
<!-- Generator: Adobe Illustrator 18.1.0, SVG Export Plug-In . SVG Version: 6.00 Build 0)  -->
<svg version="1.1" id="Layer_1" xmlns="http://www.w3.org/2000/svg" xmlns:xlink="http://www.w3.org/1999/xlink" x="0px" y="0px"
	 viewBox="0 0 319.2 319.2" style="enable-background:new 0 0 319.2 319.2;" xml:space="preserve">
<g>
	<circle style="fill:#F5833C;" cx="159.6" cy="159.6" r="159.6"/>
	<g>
		<g>
			<circle style="fill:#00939B;" cx="161.8" cy="162.6" r="100.7"/>
			<path style="fill:#19ABB5;" d="M161.1,61.9c-0.1,0-1.1,0-1.1,0v201.4c0,0,1,0,1.1,0c55.6,0,100.7-45.1,100.7-100.7
				C261.8,107,216.7,61.9,161.1,61.9z"/>
			<path style="fill:#A7C539;" d="M115.5,92.8c0,0-48.7,17.4-44.7,42s4.6,17.2,36.9,28.7c32.3,11.5,32.3,11.8,32.3,24.8
				c0,11,14.4,0,14.4,0s-10.8,10.8-14.4,30c-3.6,19.1,12.5,36.9,26.3,40.8c27.5,7.7,55.2-15.1,55.2-15.1s-10.9-12.3-25.3-26.7
				s-15.1-33.6-15.1-33.6L160,172.4c0,0,0-6.6,0-18.6c0-12,25.3-28.7,25.3-44.3s-3.2-52.3-17-39C145.2,92.8,115.5,92.8,115.5,92.8z"
				/>
			<path style="fill:#A7C539;" d="M233.9,92.2c0,0-13.4,16.1-12.4,29.9c1,13.8,2.2,25.1,12.4,24.5s17.9-9,17.9-9s8,2.1,7.5-0.5
				C257.2,126.3,247.3,103.3,233.9,92.2z"/>
			<path style="fill:#A7C539;" d="M261.3,146.6c0,0-20.6,12.8-25.7,16.6c-10.3,7.6-2.8,29.2-2.8,29.2l12.1,15.7c0,0,4,1.2,6.6,0.6
				C262,188.3,265.3,163.9,261.3,146.6z"/>
		</g>
		
			<path style="fill:none;stroke:#D56230;stroke-width:3.8342;stroke-linecap:round;stroke-miterlimit:10;stroke-dasharray:14.4846,6.8163;" d="
			M156.5,267.2c-5,7.2-10.6,11.2-16.5,11.2c-21.4,0-38.8-53.2-38.8-118.8s17.4-118.8,38.8-118.8c7.7,0,14.8,6.8,20.9,18.6"/>
		
			<path style="fill:none;stroke:#D56230;stroke-width:3.8342;stroke-linecap:round;stroke-miterlimit:10;stroke-dasharray:14.4846,6.8163;" d="
			M83.4,96.7c-1.6-8.6-0.6-15.4,3.5-19.6c15-15.3,65.2,9.5,112,55.5s72.6,95.6,57.6,110.9c-5.4,5.5-15.3,5.8-27.9,1.9"/>
		
			<path style="fill:none;stroke:#D56230;stroke-width:3.8342;stroke-linecap:round;stroke-miterlimit:10;stroke-dasharray:14.4846,6.8163;" d="
			M267.2,164.6c7.2,5,11.2,10.6,11.2,16.5c0,21.4-53.2,38.8-118.8,38.8S40.8,202.5,40.8,181.1c0-7.7,6.8-14.8,18.6-20.9"/>
	</g>
</g>
</svg>
