<?xml version="1.0" encoding="utf-8"?>
<!-- Generator: Adobe Illustrator 18.1.0, SVG Export Plug-In . SVG Version: 6.00 Build 0)  -->
<svg version="1.1" id="Layer_1" xmlns="http://www.w3.org/2000/svg" xmlns:xlink="http://www.w3.org/1999/xlink" x="0px" y="0px"
	 viewBox="0 0 319.2 319.2" style="enable-background:new 0 0 319.2 319.2;" xml:space="preserve">
<g>
	<circle style="fill:#85A640;" cx="159.6" cy="159.6" r="159.6"/>
	<g>
		<line style="fill:none;stroke:#F37032;stroke-width:7;stroke-miterlimit:10;" x1="165.6" y1="169.3" x2="214.7" y2="244.6"/>
		<path style="fill:#FFD400;" d="M202.7,247h14.6c0.7,0,1.2-0.5,1.2-1.2v-7.6c0-0.7-0.5-1.2-1.2-1.2h-14.6c-0.7,0-1.2,0.5-1.2,1.2
			v7.6C201.4,246.4,202,247,202.7,247z"/>
		<line style="fill:none;stroke:#F37032;stroke-width:7;stroke-miterlimit:10;" x1="161.8" y1="165" x2="161.8" y2="242"/>
		<line style="fill:none;stroke:#F37032;stroke-width:7;stroke-miterlimit:10;" x1="157.4" y1="169.3" x2="108.3" y2="244.6"/>
		<g>
			<circle style="fill:#D56230;" cx="162.5" cy="165.2" r="11.7"/>
			<circle style="fill:#F5833C;" cx="162.5" cy="165.2" r="4.3"/>
		</g>
		
			<rect x="203.9" y="152.1" transform="matrix(0.9681 0.2505 -0.2505 0.9681 47.4687 -53.7519)" style="fill:#F5833C;" width="62" height="15"/>
		<path style="fill:#FFD400;" d="M270.3,181.8l-11.2-2.9c-0.7-0.2-1-0.8-0.9-1.5l5.7-21.8c0.2-0.7,0.8-1,1.5-0.9l11.2,2.9
			c0.7,0.2,1,0.8,0.9,1.5l-5.7,21.8C271.6,181.5,270.9,181.9,270.3,181.8z"/>
		<path style="fill:#D56230;" d="M217,172.1l-95.6-24.7l8.3-31.9l95.6,24.7c0.7,0.2,1,0.8,0.9,1.5l-7.7,29.6
			C218.3,171.9,217.6,172.3,217,172.1z"/>
		<path style="fill:#F37032;" d="M206.5,176.6l-101.4-26.2l11.8-45.5l101.4,26.2c0.7,0.2,1,0.8,0.9,1.5L208,175.7
			C207.8,176.4,207.2,176.8,206.5,176.6z"/>
		
			<ellipse transform="matrix(-0.9681 -0.2505 0.2505 -0.9681 84.2001 237.9868)" style="fill:#7AC4D3;" cx="57.2" cy="113.6" rx="10.8" ry="40"/>
		<path style="fill:#D56230;" d="M128.8,161.7l-48.2-12.5L94.9,94l48.2,12.5c0.7,0.2,1,0.8,0.9,1.5l-13.7,52.8
			C130.1,161.4,129.4,161.8,128.8,161.7z"/>
		<path style="fill:#FFD400;" d="M84.9,163.7l-42.2-10.9c-0.7-0.2-1-0.8-0.9-1.5l20.2-78c0.2-0.7,0.8-1,1.5-0.9l42.2,10.9
			c0.7,0.2,1,0.8,0.9,1.5l-20.2,78C86.2,163.5,85.5,163.9,84.9,163.7z"/>
		<path style="fill:#FFD400;" d="M120.4,247h-14.6c-0.7,0-1.2-0.5-1.2-1.2v-7.6c0-0.7,0.5-1.2,1.2-1.2h14.6c0.7,0,1.2,0.5,1.2,1.2
			v7.6C121.6,246.4,121,247,120.4,247z"/>
		<path style="fill:#FFD400;" d="M169.4,247h-14.6c-0.7,0-1.2-0.5-1.2-1.2v-7.6c0-0.7,0.5-1.2,1.2-1.2h14.6c0.7,0,1.2,0.5,1.2,1.2
			v7.6C170.7,246.4,170.1,247,169.4,247z"/>
	</g>
</g>
</svg>
