<?xml version="1.0" encoding="utf-8"?>
<!-- Generator: Adobe Illustrator 18.1.0, SVG Export Plug-In . SVG Version: 6.00 Build 0)  -->
<svg version="1.1" id="Layer_1" xmlns="http://www.w3.org/2000/svg" xmlns:xlink="http://www.w3.org/1999/xlink" x="0px" y="0px"
	 viewBox="0 0 109.2 109.2" style="enable-background:new 0 0 109.2 109.2;" xml:space="preserve">
<g>
	<g>
		<circle style="fill:#A7C539;" cx="54.6" cy="54.6" r="54.6"/>
		<path style="fill:#85A640;" d="M54.6,2.3v104.6c28.4-0.6,52.3-23.7,52.3-52.3S83,2.9,54.6,2.3z"/>
	</g>
	<g>
		
			<rect x="23.8" y="31.5" style="fill:#333333;stroke:#D56230;stroke-width:10;stroke-linecap:round;stroke-linejoin:round;stroke-miterlimit:10;" width="62.1" height="46.7"/>
		<g>
			
				<line style="fill:none;stroke:#D1D3D4;stroke-width:8;stroke-linecap:round;stroke-linejoin:round;stroke-miterlimit:10;" x1="42.3" y1="40.3" x2="42.3" y2="50"/>
			
				<line style="fill:none;stroke:#D1D3D4;stroke-width:8;stroke-linecap:round;stroke-linejoin:round;stroke-miterlimit:10;" x1="37.2" y1="44.9" x2="46.4" y2="44.9"/>
		</g>
		
			<line style="fill:none;stroke:#D1D3D4;stroke-width:8;stroke-linecap:round;stroke-linejoin:round;stroke-miterlimit:10;" x1="62.8" y1="66.9" x2="72.6" y2="66.9"/>
		<g>
			
				<line style="fill:none;stroke:#D1D3D4;stroke-width:8;stroke-linecap:round;stroke-linejoin:round;stroke-miterlimit:10;" x1="63.3" y1="47.9" x2="72.6" y2="47.9"/>
			<circle style="fill:#D1D3D4;" cx="67.9" cy="41.5" r="2.3"/>
			<circle style="fill:#D1D3D4;" cx="67.9" cy="52.7" r="2.3"/>
		</g>
		<g>
			
				<line style="fill:none;stroke:#D1D3D4;stroke-width:8.1752;stroke-linecap:round;stroke-linejoin:round;stroke-miterlimit:10;" x1="36.8" y1="68.7" x2="46.7" y2="58.8"/>
			<path style="fill:#D1D3D4;" d="M35.8,59.8c-0.9-2.2,1.2-4.2,3.3-3.1c0.4,0.2,0.6,0.5,0.8,0.8c1.1,2.2-0.9,4.3-3.1,3.3
				C36.4,60.7,36.1,60.3,35.8,59.8z"/>
			<path style="fill:#D1D3D4;" d="M43.3,69.7c-0.9-2.2,1.2-4.2,3.3-3.1c0.4,0.2,0.6,0.5,0.8,0.8c1.1,2.2-0.9,4.3-3.1,3.3
				C43.9,70.6,43.5,70.2,43.3,69.7z"/>
		</g>
	</g>
</g>
</svg>
