<?xml version="1.0" encoding="utf-8"?>
<!-- Generator: Adobe Illustrator 18.1.0, SVG Export Plug-In . SVG Version: 6.00 Build 0)  -->
<svg version="1.1" id="Layer_1" xmlns="http://www.w3.org/2000/svg" xmlns:xlink="http://www.w3.org/1999/xlink" x="0px" y="0px"
	 viewBox="0 0 109.2 109.2" style="enable-background:new 0 0 109.2 109.2;" xml:space="preserve">
<g>
	<g>
		<circle style="fill:#19ABB5;" cx="54.6" cy="54.6" r="54.6"/>
		<path style="fill:#00939B;" d="M54.4,2.3v104.6c28.7-0.6,52.3-23.7,52.3-52.3S83.1,2.9,54.4,2.3z"/>
	</g>
	<g>
		<g>
			<path style="fill:#85A640;" d="M51.9,18.6c5.3,5.3,6.8,12.4,6.8,12.4s-7.1-1.5-12.4-6.8s-6.8-12.4-6.8-12.4S46.7,13.3,51.9,18.6z
				"/>
			<path style="fill:#A7C539;" d="M39.6,12.1c0.4,1.3,2.1,7.4,6.7,12.1s10.7,6.4,12.1,6.7L39.6,12.1z"/>
			<g>
				<path style="fill:#85A640;" d="M57.9,24.3c2.3-2.3,5.2-3.8,8.3-4.4c1-0.2,2,0.5,2.2,1.5c0.2,1-0.5,2-1.5,2.2
					c-2.4,0.5-4.6,1.6-6.4,3.4c-1.9,1.9-3.1,4.4-3.5,7.1c-0.2,1-1.1,1.7-2.1,1.6c-1-0.2-1.7-1.1-1.6-2.1
					C53.8,30.1,55.4,26.8,57.9,24.3z"/>
			</g>
			<path style="fill:#BC2020;" d="M82.8,66.5c0.8-2.5,1.3-5.1,1.4-7.9c2.2-19.6-9.9-37.1-29.8-30.9l0,0
				c-16.4,0.1-19.9,6.5-19.9,22.8c0,14.8,4.4,24.9,20.1,36.5c12,0,22.4-7.1,27-17.4C82.1,69,82.5,68,82.8,66.5z"/>
			<path style="fill:#EA2A2A;" d="M54.6,27.9L54.6,27.9c0-0.5,0-0.1,0-0.1C34.1,21.4,21.9,40.1,25,60.4l0,0c0.2,1.6,0.4,3.2,0.8,4.7
				c0.5,2.5,1,4.1,1.6,5c4.7,10.2,14.6,17.1,26.9,17.1V27.9H54.6z"/>
		</g>
		<path style="fill:#EA4747;" d="M44.5,30.1c-2.4-0.8-5,0.5-5.8,2.9c-0.2,0.6-0.3,1.1-0.2,1.6c-1.2,0.1-2.2,0.9-2.6,2.1
			c-0.5,1.6,0.4,3.3,1.9,3.8c1.5,0.5,3.1-0.3,3.7-1.7c0.1,0,0.1,0.1,0.2,0.1c2.4,0.8,5-0.5,5.8-2.9C48.2,33.4,46.9,30.8,44.5,30.1z"
			/>
	</g>
</g>
</svg>
